<svg xmlns="http://www.w3.org/2000/svg" viewBox="0 0 134.029 224.83">
  <g fill="currentColor">
    <path d="M66.65 38.922l-11 25.673h22.1z"/>
    <path d="M76.449 149.007q-3.776-2.895-10.121-2.9H53.171v23.2h13.157q6.44 0 10.167-3.223a10.454 10.454 0 003.725-8.286v-.181q.002-5.709-3.771-8.61z"/>
    <path d="M41.537 0L0 90.128v134.7h76.2v-.026a59.712 59.712 0 0057.833-59.5V.002zm20.071 25.443H72.06l28.241 64.642h-11.92l-6.51-15.5H51.522l-6.6 15.5H33.368zm30.074 132.126a21.125 21.125 0 01-2.023 9.492 19.746 19.746 0 01-5.515 6.832 24.642 24.642 0 01-8.179 4.171 34.348 34.348 0 01-10.018 1.42H53.171v20.632H41.985v-64.185h25.307a31.941 31.941 0 0110.132 1.512 21.591 21.591 0 017.7 4.356 19.288 19.288 0 014.859 6.784 22.073 22.073 0 011.7 8.8zm11.559-39.4H30.422v-10.787h72.815z"/>
  </g>
</svg>