<svg xmlns="http://www.w3.org/2000/svg" viewBox="0 0 220.57 175.278">
  <g fill="currentColor">
    <path d="M9.647.226h4.565l9.646 22.668h-5.177l-2.057-5.048H7.106l-2.057 5.048H0zm5.208 13.247l-2.989-7.3-2.991 7.3z"/>
    <path d="M39.489 23.28a11.659 11.659 0 01-4.6-.9 11.3 11.3 0 01-3.665-2.46 11.205 11.205 0 01-2.411-3.681 11.855 11.855 0 01-.869-4.534v-.064a11.738 11.738 0 01.869-4.518 11.641 11.641 0 012.411-3.7 11.171 11.171 0 013.7-2.508 12.035 12.035 0 014.758-.917 14.937 14.937 0 012.879.257 12.042 12.042 0 012.362.708 10.262 10.262 0 011.962 1.093 13.462 13.462 0 011.672 1.415l-3.151 3.633a11.971 11.971 0 00-2.685-1.865 6.84 6.84 0 00-3.07-.674 6.267 6.267 0 00-2.622.546 6.2 6.2 0 00-2.073 1.511 7.044 7.044 0 00-1.35 2.235 7.577 7.577 0 00-.483 2.716v.065a7.705 7.705 0 00.483 2.733 7.156 7.156 0 001.334 2.251 6.231 6.231 0 002.058 1.527 6.2 6.2 0 002.653.563 6.905 6.905 0 003.263-.707 12.686 12.686 0 002.652-1.93l3.152 3.184a16.4 16.4 0 01-1.8 1.672 10.743 10.743 0 01-2.041 1.269 10.594 10.594 0 01-2.429.8 14.637 14.637 0 01-2.959.28z"/>
    <path d="M59.515 4.949h-6.848V.384h18.649v4.565h-6.849v17.942h-4.952z"/>
    <path d="M87.65 23.28a12.262 12.262 0 01-4.79-.917 11.9 11.9 0 01-3.779-2.476 11.064 11.064 0 01-2.476-3.665 11.542 11.542 0 01-.884-4.518v-.064a11.379 11.379 0 01.9-4.518 11.663 11.663 0 012.492-3.7A11.588 11.588 0 0182.907.914a12.389 12.389 0 014.807-.917 12.27 12.27 0 014.791.917 11.9 11.9 0 013.778 2.475 11.091 11.091 0 012.476 3.666 11.556 11.556 0 01.884 4.517v.065a11.4 11.4 0 01-.9 4.518 11.65 11.65 0 01-2.492 3.7 11.6 11.6 0 01-3.8 2.508 12.385 12.385 0 01-4.801.917zm.064-4.566a6.756 6.756 0 002.733-.547 6.251 6.251 0 002.139-1.511 7.142 7.142 0 001.382-2.235 7.374 7.374 0 00.5-2.717v-.064a7.514 7.514 0 00-.5-2.734 6.819 6.819 0 00-1.415-2.25 6.784 6.784 0 00-2.17-1.527 6.6 6.6 0 00-2.733-.562 6.724 6.724 0 00-2.75.546 6.285 6.285 0 00-2.121 1.511 7.107 7.107 0 00-1.383 2.235 7.354 7.354 0 00-.5 2.716v.065a7.478 7.478 0 00.5 2.733 6.8 6.8 0 001.415 2.251 6.856 6.856 0 002.154 1.527 6.566 6.566 0 002.749.563z"/>
    <path d="M105.656.387h4.565l10.547 13.857V.387h4.887v22.507h-4.212l-10.9-14.308v14.308h-4.887z"/>
    <path d="M1.93 38.386h9.2a10.846 10.846 0 013.618.562 7.665 7.665 0 012.7 1.592 6.934 6.934 0 011.7 2.46 8.164 8.164 0 01.6 3.167v.064a7.9 7.9 0 01-.708 3.441 7.023 7.023 0 01-1.945 2.476 8.463 8.463 0 01-2.894 1.495 12.282 12.282 0 01-3.553.5H6.887v6.752H1.935zm8.874 11.35a4.033 4.033 0 002.894-.98 3.225 3.225 0 001.029-2.429v-.063a3.075 3.075 0 00-1.077-2.541 4.569 4.569 0 00-2.942-.868H6.882v6.881z"/>
    <path d="M25.015 38.386h10.29q4.277 0 6.559 2.283a6.954 6.954 0 011.929 5.145v.063a7.053 7.053 0 01-1.335 4.453 7.721 7.721 0 01-3.488 2.525l5.5 8.038h-5.787l-4.823-7.2h-3.891v7.2h-4.952zm9.968 10.932a4.109 4.109 0 002.814-.869 2.936 2.936 0 00.98-2.315v-.064a2.875 2.875 0 00-1.028-2.412 4.559 4.559 0 00-2.863-.8h-4.919v6.463z"/>
    <path d="M60.803 61.279a12.266 12.266 0 01-4.791-.917 11.9 11.9 0 01-3.779-2.476 11.064 11.064 0 01-2.476-3.665 11.555 11.555 0 01-.883-4.518v-.063a11.355 11.355 0 01.9-4.518 11.639 11.639 0 012.492-3.7 11.6 11.6 0 013.793-2.508 12.393 12.393 0 014.807-.916 12.27 12.27 0 014.791.916 11.925 11.925 0 013.779 2.476 11.08 11.08 0 012.475 3.665 11.567 11.567 0 01.884 4.518v.065a11.374 11.374 0 01-.9 4.517 11.657 11.657 0 01-2.492 3.7 11.6 11.6 0 01-3.794 2.507 12.391 12.391 0 01-4.806.917zm.063-4.566a6.769 6.769 0 002.733-.546 6.267 6.267 0 002.139-1.512 7.129 7.129 0 001.383-2.234 7.38 7.38 0 00.5-2.718v-.063a7.507 7.507 0 00-.5-2.734 6.817 6.817 0 00-1.415-2.25 6.787 6.787 0 00-2.171-1.528 6.6 6.6 0 00-2.732-.562 6.738 6.738 0 00-2.75.546 6.3 6.3 0 00-2.122 1.511 7.109 7.109 0 00-1.383 2.235 7.355 7.355 0 00-.5 2.717v.065a7.476 7.476 0 00.5 2.732 6.8 6.8 0 001.415 2.252 6.866 6.866 0 002.154 1.527 6.569 6.569 0 002.749.562z"/>
    <path d="M83.92 61.215a8.941 8.941 0 01-4.42-1 10.355 10.355 0 01-2.942-2.378l3.119-3.473a8.935 8.935 0 001.945 1.656 4.1 4.1 0 002.17.595 2.849 2.849 0 002.219-.885 4.157 4.157 0 00.8-2.845v-14.5h5.081v14.726a10.124 10.124 0 01-.547 3.505 6.846 6.846 0 01-1.576 2.507 6.641 6.641 0 01-2.523 1.56 9.9 9.9 0 01-3.326.532z"/>
    <path d="M98.55 38.386h16.945v4.4h-12.057v4.566h10.61v4.4h-10.61v4.727h12.218v4.4H98.55z"/>
    <path d="M132.247 61.279a11.637 11.637 0 01-4.6-.9 11.266 11.266 0 01-3.665-2.459 11.163 11.163 0 01-2.412-3.682 11.851 11.851 0 01-.868-4.534v-.063a11.727 11.727 0 01.868-4.518 11.586 11.586 0 012.412-3.7 11.162 11.162 0 013.7-2.508 12.034 12.034 0 014.759-.916 14.847 14.847 0 012.877.257 12.041 12.041 0 012.364.708 10.253 10.253 0 011.961 1.093 13.217 13.217 0 011.672 1.415l-3.151 3.633a11.917 11.917 0 00-2.685-1.865 6.844 6.844 0 00-3.071-.675 6.274 6.274 0 00-2.62.546 6.211 6.211 0 00-2.074 1.511 7.044 7.044 0 00-1.351 2.235 7.6 7.6 0 00-.482 2.717v.065a7.728 7.728 0 00.482 2.732 7.179 7.179 0 001.334 2.252 6.246 6.246 0 002.059 1.527 6.2 6.2 0 002.652.562 6.9 6.9 0 003.264-.707 12.664 12.664 0 002.653-1.93l3.15 3.184a16.272 16.272 0 01-1.8 1.672 10.7 10.7 0 01-2.042 1.269 10.51 10.51 0 01-2.427.8 14.639 14.639 0 01-2.959.279z"/>
    <path d="M152.278 42.949h-6.849v-4.565h18.649v4.565h-6.849v17.942h-4.951z"/>
    <path d="M177.517 61.215a14.912 14.912 0 01-5.047-.884 13.362 13.362 0 01-4.5-2.718l2.926-3.5a14.724 14.724 0 003.168 1.993 8.462 8.462 0 003.552.74 4.326 4.326 0 002.395-.563 1.772 1.772 0 00.853-1.559v-.065a1.95 1.95 0 00-.178-.852 1.793 1.793 0 00-.676-.691 7.192 7.192 0 00-1.387-.644q-.888-.32-2.305-.674a28.089 28.089 0 01-3.1-.933 8.711 8.711 0 01-2.353-1.27 5.115 5.115 0 01-1.5-1.881 6.521 6.521 0 01-.533-2.8v-.063a6.528 6.528 0 01.575-2.782 6.336 6.336 0 011.613-2.138 7.239 7.239 0 012.48-1.382 9.955 9.955 0 013.178-.483 13.456 13.456 0 014.549.74 13.21 13.21 0 013.811 2.122l-2.573 3.73a16.337 16.337 0 00-2.958-1.624 7.549 7.549 0 00-2.894-.6 3.5 3.5 0 00-2.17.563 1.709 1.709 0 00-.723 1.4v.063a2.016 2.016 0 00.209.949 1.891 1.891 0 00.758.723 7.073 7.073 0 001.5.612q.951.288 2.4.675a23 23 0 013.046 1.013 8.5 8.5 0 012.257 1.35 5.144 5.144 0 011.386 1.849 6.268 6.268 0 01.468 2.54v.064a6.977 6.977 0 01-.607 2.975 6.12 6.12 0 01-1.693 2.186 7.615 7.615 0 01-2.593 1.35 11.251 11.251 0 01-3.334.469z"/>
    <path d="M12.701 99.279a11.115 11.115 0 01-4.5-.9 11.115 11.115 0 01-3.569-2.46 11.225 11.225 0 01-2.362-3.681 12.036 12.036 0 01-.853-4.534v-.064a11.954 11.954 0 01.853-4.5 11.6 11.6 0 012.362-3.713 11 11 0 013.6-2.509 11.254 11.254 0 014.565-.916 13.747 13.747 0 012.781.257 11.58 11.58 0 012.3.724 10.4 10.4 0 011.961 1.125 17.125 17.125 0 011.737 1.463l-1.737 1.865a14.277 14.277 0 00-3.1-2.219 8.458 8.458 0 00-3.97-.867 8.423 8.423 0 00-3.457.707 8.416 8.416 0 00-2.765 1.962 9.067 9.067 0 00-1.833 2.942 9.858 9.858 0 00-.659 3.616v.065a9.957 9.957 0 00.659 3.649 9.068 9.068 0 001.833 2.942 8.637 8.637 0 002.765 1.977 8.244 8.244 0 003.457.724 8.69 8.69 0 003.987-.852 13.891 13.891 0 003.279-2.4l1.672 1.639a15.982 15.982 0 01-1.816 1.625 11.384 11.384 0 01-2.042 1.237 11.635 11.635 0 01-2.348.8 12.453 12.453 0 01-2.8.296z"/>
    <path d="M38.199 99.279a11.421 11.421 0 01-4.679-.933 11.166 11.166 0 01-3.618-2.524 11.231 11.231 0 01-2.331-3.7 12.09 12.09 0 01-.819-4.421v-.064a12 12 0 01.835-4.437 11.408 11.408 0 012.348-3.714 11.3 11.3 0 013.634-2.54 11.372 11.372 0 014.693-.949 11.431 11.431 0 014.679.933 11.173 11.173 0 013.617 2.524 11.224 11.224 0 012.331 3.7 12.066 12.066 0 01.82 4.42.041.041 0 010 .065 12.028 12.028 0 01-.835 4.437 11.442 11.442 0 01-2.348 3.714 11.318 11.318 0 01-3.634 2.54 11.378 11.378 0 01-4.693.949zm.063-2.348a8.619 8.619 0 003.553-.724 8.38 8.38 0 002.782-1.977 9.3 9.3 0 001.816-2.926 9.717 9.717 0 00.659-3.6v-.064a9.853 9.853 0 00-.659-3.618 8.968 8.968 0 00-1.849-2.942 8.967 8.967 0 00-2.813-1.993 8.468 8.468 0 00-3.552-.739 8.612 8.612 0 00-3.553.723 8.385 8.385 0 00-2.782 1.977 9.313 9.313 0 00-1.817 2.927 9.713 9.713 0 00-.658 3.6v.065a9.844 9.844 0 00.658 3.617 8.972 8.972 0 001.849 2.942 8.931 8.931 0 002.813 1.993 8.455 8.455 0 003.553.739z"/>
    <path d="M56.689 76.385h2.379l14.18 18.038V76.385h2.476v22.507h-2.025L59.165 80.436v18.456h-2.476z"/>
    <path d="M91.444 99.214a13.31 13.31 0 01-4.935-.884 14.1 14.1 0 01-4.26-2.717l1.574-1.865a13.3 13.3 0 003.569 2.4 10.273 10.273 0 004.148.787 5.727 5.727 0 003.65-1.077 3.351 3.351 0 001.366-2.75v-.063a3.643 3.643 0 00-.257-1.4 2.885 2.885 0 00-.9-1.142 6.426 6.426 0 00-1.788-.932 23.039 23.039 0 00-2.918-.8 23.533 23.533 0 01-3.368-.965 8.387 8.387 0 01-2.369-1.319 4.852 4.852 0 01-1.386-1.8 5.977 5.977 0 01-.451-2.411v-.065a5.514 5.514 0 01.547-2.444 5.757 5.757 0 011.543-1.945 7.488 7.488 0 012.347-1.286 9 9 0 012.959-.466 12.324 12.324 0 014.324.691 13.183 13.183 0 013.585 2.074l-1.479 1.961a11.012 11.012 0 00-3.167-1.865 9.68 9.68 0 00-3.328-.578 5.405 5.405 0 00-3.505 1.044 3.213 3.213 0 00-1.286 2.588v.065a3.734 3.734 0 00.258 1.431 2.889 2.889 0 00.932 1.157 6.8 6.8 0 001.865.965 22.512 22.512 0 003.055.82 13.278 13.278 0 015.546 2.315A4.982 4.982 0 0199.1 92.79v.064a5.9 5.9 0 01-.572 2.62 6.011 6.011 0 01-1.576 2.01 7.081 7.081 0 01-2.418 1.286 10.146 10.146 0 01-3.09.444z"/>
    <path d="M114.883 99.249a11.047 11.047 0 01-3.809-.627 8 8 0 01-2.959-1.865 8.346 8.346 0 01-1.912-3.07 12.123 12.123 0 01-.676-4.212V76.388h2.541v12.926a7.985 7.985 0 001.816 5.627 6.562 6.562 0 005.064 1.961 6.625 6.625 0 004.952-1.865 7.63 7.63 0 001.832-5.562V76.388h2.541v12.893a12.728 12.728 0 01-.676 4.341 8.465 8.465 0 01-1.913 3.119 7.891 7.891 0 01-2.957 1.881 11.169 11.169 0 01-3.844.627z"/>
    <path d="M131.889 76.385h2.539v20.16h12.669v2.347h-15.208z"/>
    <path d="M159.351 78.732h-7.556v-2.347h17.652v2.347h-7.558v20.16h-2.54z"/>
    <path d="M12.701 137.278a11.1 11.1 0 01-4.5-.9 11.1 11.1 0 01-3.569-2.46 11.226 11.226 0 01-2.362-3.681 12.037 12.037 0 01-.853-4.534v-.064a11.949 11.949 0 01.853-4.5 11.609 11.609 0 012.362-3.714 11 11 0 013.6-2.508 11.237 11.237 0 014.565-.916 13.677 13.677 0 012.781.257 11.516 11.516 0 012.3.724 10.45 10.45 0 011.961 1.124 17.145 17.145 0 011.737 1.464l-1.737 1.865a14.244 14.244 0 00-3.1-2.219 8.445 8.445 0 00-3.97-.868 8.423 8.423 0 00-3.457.707 8.445 8.445 0 00-2.765 1.962 9.067 9.067 0 00-1.833 2.942 9.864 9.864 0 00-.659 3.617v.064a9.95 9.95 0 00.659 3.649 9.082 9.082 0 001.833 2.943 8.653 8.653 0 002.765 1.977 8.259 8.259 0 003.457.724 8.69 8.69 0 003.987-.853 13.861 13.861 0 003.279-2.395l1.672 1.64a15.972 15.972 0 01-1.816 1.624 11.449 11.449 0 01-2.042 1.238 11.633 11.633 0 01-2.348.8 12.454 12.454 0 01-2.8.291z"/>
    <path d="M38.199 137.278a11.436 11.436 0 01-4.679-.932 11.183 11.183 0 01-3.618-2.525 11.238 11.238 0 01-2.331-3.7 12.1 12.1 0 01-.819-4.422v-.064a11.992 11.992 0 01.835-4.436 11.408 11.408 0 012.348-3.714 11.3 11.3 0 013.634-2.541 11.371 11.371 0 014.693-.948 11.447 11.447 0 014.679.932 11.188 11.188 0 013.617 2.524 11.234 11.234 0 012.331 3.7 12.068 12.068 0 01.82 4.421.04.04 0 010 .064 12.024 12.024 0 01-.835 4.437 11.44 11.44 0 01-2.348 3.714 11.319 11.319 0 01-3.634 2.541 11.4 11.4 0 01-4.693.949zm.063-2.347a8.635 8.635 0 003.553-.724 8.4 8.4 0 002.782-1.977 9.306 9.306 0 001.816-2.926 9.722 9.722 0 00.659-3.6v-.064a9.844 9.844 0 00-.659-3.617 8.948 8.948 0 00-1.849-2.942 8.954 8.954 0 00-2.813-1.994 8.468 8.468 0 00-3.552-.739 8.628 8.628 0 00-3.553.723 8.4 8.4 0 00-2.782 1.977 9.325 9.325 0 00-1.817 2.927 9.714 9.714 0 00-.658 3.6v.064a9.84 9.84 0 00.658 3.617 8.952 8.952 0 001.849 2.942 8.918 8.918 0 002.813 1.994 8.47 8.47 0 003.553.739z"/>
    <path d="M56.689 114.385h2.379l14.18 18.038v-18.038h2.476v22.507h-2.025l-14.534-18.457v18.457h-2.476z"/>
    <path d="M91.444 137.214a13.31 13.31 0 01-4.935-.884 14.082 14.082 0 01-4.26-2.718l1.574-1.865a13.275 13.275 0 003.569 2.4 10.271 10.271 0 004.148.788 5.733 5.733 0 003.65-1.077 3.354 3.354 0 001.366-2.75v-.064a3.643 3.643 0 00-.257-1.4 2.882 2.882 0 00-.9-1.141 6.425 6.425 0 00-1.788-.933 23.018 23.018 0 00-2.918-.8 23.4 23.4 0 01-3.368-.965 8.363 8.363 0 01-2.369-1.319 4.844 4.844 0 01-1.386-1.8 5.978 5.978 0 01-.451-2.411v-.065a5.509 5.509 0 01.547-2.443 5.75 5.75 0 011.543-1.946 7.506 7.506 0 012.347-1.285 8.979 8.979 0 012.959-.467 12.346 12.346 0 014.324.691 13.208 13.208 0 013.585 2.074l-1.479 1.961a11.036 11.036 0 00-3.167-1.865 9.68 9.68 0 00-3.328-.578 5.4 5.4 0 00-3.505 1.045 3.21 3.21 0 00-1.286 2.588v.065a3.741 3.741 0 00.258 1.431 2.9 2.9 0 00.932 1.157 6.8 6.8 0 001.865.964 22.344 22.344 0 003.055.821 13.265 13.265 0 015.546 2.315 4.98 4.98 0 011.785 4.051v.064a5.9 5.9 0 01-.572 2.62 6 6 0 01-1.576 2.01 7.046 7.046 0 01-2.418 1.286 10.144 10.144 0 01-3.09.445z"/>
    <path d="M111.829 116.731h-7.556v-2.346h17.653v2.346h-7.556v20.161h-2.541z"/>
    <path d="M128.324 114.385h9.678a10.75 10.75 0 013.714.6 7.258 7.258 0 012.684 1.655 5.8 5.8 0 011.287 1.961 6.636 6.636 0 01.45 2.476v.065a6.687 6.687 0 01-.45 2.524 5.767 5.767 0 01-1.271 1.929 6.827 6.827 0 01-1.945 1.35 9.4 9.4 0 01-2.444.756l6.914 9.2h-3.119l-6.533-8.752h-6.43v8.745h-2.54zm9.47 11.478a7.969 7.969 0 002.321-.322 5.677 5.677 0 001.838-.916 4.236 4.236 0 001.208-1.446 4.209 4.209 0 00.435-1.946v-.064a3.894 3.894 0 00-1.515-3.263 6.8 6.8 0 00-4.255-1.175h-6.962v9.132z"/>
    <path d="M162.181 137.249a11.049 11.049 0 01-3.81-.627 8.007 8.007 0 01-2.958-1.865 8.354 8.354 0 01-1.914-3.071 12.143 12.143 0 01-.675-4.212v-13.086h2.54v12.925a7.984 7.984 0 001.817 5.627 6.559 6.559 0 005.065 1.961 6.623 6.623 0 004.95-1.864 7.628 7.628 0 001.834-5.563v-13.086h2.54v12.893a12.736 12.736 0 01-.675 4.341 8.5 8.5 0 01-1.914 3.119 7.9 7.9 0 01-2.958 1.881 11.15 11.15 0 01-3.842.627z"/>
    <path d="M189.479 137.278a11.092 11.092 0 01-4.5-.9 11.089 11.089 0 01-3.569-2.46 11.246 11.246 0 01-2.363-3.681 12.055 12.055 0 01-.852-4.534v-.064a11.967 11.967 0 01.852-4.5 11.63 11.63 0 012.363-3.714 10.984 10.984 0 013.6-2.508 11.236 11.236 0 014.565-.916 13.69 13.69 0 012.781.257 11.484 11.484 0 012.3.724 10.419 10.419 0 011.961 1.124 17.038 17.038 0 011.737 1.464l-1.737 1.865a14.2 14.2 0 00-3.1-2.219 8.443 8.443 0 00-3.97-.868 8.418 8.418 0 00-3.456.707 8.452 8.452 0 00-2.766 1.962 9.1 9.1 0 00-1.833 2.942 9.843 9.843 0 00-.658 3.617v.064a9.929 9.929 0 00.658 3.649 9.116 9.116 0 001.833 2.943 8.66 8.66 0 002.766 1.977 8.254 8.254 0 003.456.724 8.68 8.68 0 003.986-.853 13.846 13.846 0 003.28-2.395l1.672 1.64a16.056 16.056 0 01-1.816 1.624 11.415 11.415 0 01-2.042 1.238 11.646 11.646 0 01-2.347.8 12.461 12.461 0 01-2.801.291z"/>
    <path d="M210.475 116.731h-7.556v-2.346h17.651v2.346h-7.556v20.161h-2.539z"/>
    <path d="M12.701 175.278a11.114 11.114 0 01-4.5-.9 11.114 11.114 0 01-3.569-2.46 11.236 11.236 0 01-2.362-3.681 12.037 12.037 0 01-.853-4.534v-.064a11.954 11.954 0 01.853-4.5 11.593 11.593 0 012.362-3.713 11 11 0 013.6-2.509 11.238 11.238 0 014.565-.916 13.751 13.751 0 012.781.257 11.584 11.584 0 012.3.724 10.4 10.4 0 011.961 1.125 17 17 0 011.737 1.463l-1.737 1.865a14.281 14.281 0 00-3.1-2.219 8.458 8.458 0 00-3.97-.868 8.423 8.423 0 00-3.457.707 8.446 8.446 0 00-2.765 1.962 9.088 9.088 0 00-1.833 2.942 9.867 9.867 0 00-.659 3.617v.065a9.958 9.958 0 00.659 3.649 9.067 9.067 0 001.833 2.942 8.637 8.637 0 002.765 1.977 8.243 8.243 0 003.457.724 8.69 8.69 0 003.987-.852 13.89 13.89 0 003.279-2.395l1.672 1.639a15.879 15.879 0 01-1.816 1.624 11.336 11.336 0 01-2.042 1.238 11.569 11.569 0 01-2.348.8 12.391 12.391 0 01-2.8.291z"/>
    <path d="M38.199 175.278a11.438 11.438 0 01-4.679-.933 11.166 11.166 0 01-3.618-2.524 11.233 11.233 0 01-2.331-3.7 12.09 12.09 0 01-.819-4.421v-.064a12 12 0 01.835-4.437 11.409 11.409 0 012.348-3.714 11.287 11.287 0 013.634-2.54 11.371 11.371 0 014.693-.949 11.431 11.431 0 014.679.933 11.173 11.173 0 013.617 2.524 11.23 11.23 0 012.331 3.7 12.075 12.075 0 01.82 4.421.041.041 0 010 .065 12.027 12.027 0 01-.835 4.437 11.426 11.426 0 01-2.348 3.713 11.32 11.32 0 01-3.634 2.541 11.379 11.379 0 01-4.693.948zm.063-2.348a8.619 8.619 0 003.553-.724 8.38 8.38 0 002.782-1.977 9.294 9.294 0 001.816-2.926 9.717 9.717 0 00.659-3.6v-.064a9.849 9.849 0 00-.659-3.618 8.969 8.969 0 00-1.849-2.942 8.968 8.968 0 00-2.813-1.993 8.469 8.469 0 00-3.552-.74 8.612 8.612 0 00-3.553.724 8.37 8.37 0 00-2.782 1.977 9.3 9.3 0 00-1.817 2.927 9.713 9.713 0 00-.658 3.6v.065a9.844 9.844 0 00.658 3.617 8.972 8.972 0 001.849 2.942 8.93 8.93 0 002.813 1.993 8.454 8.454 0 003.553.739z"/>
    <path d="M56.689 152.384h2.572l8.2 12.282 8.2-12.282h2.572v22.507h-2.544V156.66l-8.2 12.058h-.129l-8.2-12.025v18.2h-2.471z"/>
    <path d="M86.203 152.384h8.425a11.325 11.325 0 013.456.5 7.942 7.942 0 012.669 1.415 6.141 6.141 0 011.7 2.235 7.185 7.185 0 01.594 2.99v.064a6.871 6.871 0 01-.707 3.2 6.828 6.828 0 01-1.913 2.3 8.318 8.318 0 01-2.814 1.4 12.165 12.165 0 01-3.408.466H88.74v7.942h-2.541zm8.118 12.282a8.538 8.538 0 002.531-.354 5.843 5.843 0 001.966-1.017 4.494 4.494 0 001.258-1.564 4.624 4.624 0 00.436-2.032v-.064a4.288 4.288 0 00-1.66-3.662 7.175 7.175 0 00-4.4-1.242h-5.706v9.935z"/>
    <path d="M109.289 152.384h2.539v20.16h12.669v2.347h-15.208z"/>
    <path d="M130.799 152.384h16.27v2.283H133.34v7.749h12.282v2.283H133.34v7.91h13.89v2.282h-16.431z"/>
    <path d="M159.898 154.731h-7.556v-2.347h17.652v2.347h-7.556v20.16h-2.54z"/>
    <path d="M176.389 152.384h16.269v2.283h-13.73v7.749h12.283v2.283h-12.283v7.91h13.89v2.282h-16.429z"/>
  </g>
</svg>